<svg width="18" height="18" viewBox="0 0 18 18" fill="none" xmlns="http://www.w3.org/2000/svg">
<path d="M0 2.25C0 1.00736 1.00736 0 2.25 0H5.34C6.58264 0 7.59 1.00736 7.59 2.25V5.34C7.59 6.58264 6.58264 7.59 5.34 7.59H2.25C1.00736 7.59 0 6.58264 0 5.34V2.25Z" fill="#344E41"/>
<path d="M10.41 2.25C10.41 1.00736 11.4174 0 12.66 0H15.75C16.9926 0 18 1.00736 18 2.25V5.34C18 6.58264 16.9926 7.59 15.75 7.59H12.66C11.4174 7.59 10.41 6.58264 10.41 5.34V2.25Z" fill="#344E41"/>
<path d="M0 12.65C0 11.4074 1.00736 10.4 2.25 10.4H5.34C6.58264 10.4 7.59 11.4074 7.59 12.65V15.74C7.59 16.9826 6.58264 17.99 5.34 17.99H2.25C1.00736 17.99 0 16.9826 0 15.74V12.65Z" fill="#344E41"/>
<path d="M10.41 12.65C10.41 11.4074 11.4174 10.4 12.66 10.4H15.75C16.9926 10.4 18 11.4074 18 12.65V15.74C18 16.9826 16.9926 17.99 15.75 17.99H12.66C11.4174 17.99 10.41 16.9826 10.41 15.74V12.65Z" fill="#344E41"/>
</svg>
