<svg width="499" height="91" viewBox="0 0 499 91" fill="none" xmlns="http://www.w3.org/2000/svg">
<mask id="mask0_20_145" style="mask-type:alpha" maskUnits="userSpaceOnUse" x="0" y="0" width="499" height="91">
<rect width="499" height="91" fill="#D9D9D9"/>
</mask>
<g mask="url(#mask0_20_145)">
<path d="M463.363 88H453.089V20.6056H463.269V23.5276C467.605 20.8884 471.658 19.5688 475.428 19.5688C478.57 19.5688 481.272 20.0401 483.535 20.9827C485.797 21.8624 487.65 23.3077 489.096 25.3185C490.541 27.2665 491.609 29.8115 492.301 32.9534C493.055 36.0953 493.432 39.8971 493.432 44.3586C493.432 48.8201 493.023 52.6219 492.206 55.7638C491.452 58.8429 490.227 61.3564 488.53 63.3044C486.834 65.1896 484.634 66.572 481.932 67.4518C479.293 68.3315 476.088 68.7714 472.318 68.7714C469.741 68.7714 466.757 68.4886 463.363 67.9231V88ZM473.637 28.7118C470.684 28.7118 467.731 29.3716 464.777 30.6912L463.363 31.351V59.1571C464.62 59.4084 465.94 59.597 467.322 59.7226C468.705 59.8483 470.15 59.9112 471.658 59.9112C473.795 59.9112 475.585 59.6284 477.031 59.0628C478.476 58.4344 479.639 57.4919 480.518 56.2351C481.398 54.9155 482.026 53.2503 482.403 51.2394C482.78 49.1658 482.969 46.6522 482.969 43.6988C482.969 33.7075 479.858 28.7118 473.637 28.7118Z" fill="black"/>
<path d="M421.864 19.5688C429.405 19.5688 434.778 21.6111 437.982 25.6956C441.25 29.7801 442.884 35.9068 442.884 44.0758C442.884 48.1603 442.507 51.7421 441.753 54.8212C440.999 57.9003 439.805 60.4767 438.171 62.5504C436.537 64.6241 434.369 66.195 431.667 67.2633C429.028 68.2687 425.76 68.7714 421.864 68.7714C418.031 68.7714 414.763 68.2687 412.061 67.2633C409.359 66.195 407.191 64.6241 405.558 62.5504C403.924 60.4767 402.73 57.9003 401.976 54.8212C401.222 51.7421 400.845 48.1603 400.845 44.0758C400.845 40.3684 401.19 37.0065 401.882 33.9903C402.573 30.974 403.704 28.3976 405.275 26.2611C406.909 24.1246 409.077 22.4908 411.779 21.3597C414.481 20.1658 417.843 19.5688 421.864 19.5688ZM413.381 56.3294C414.763 58.8429 417.591 60.0997 421.864 60.0997C423.938 60.0997 425.666 59.8169 427.048 59.2514C428.431 58.623 429.53 57.649 430.347 56.3294C431.164 55.0097 431.73 53.3445 432.044 51.3337C432.358 49.26 432.515 46.8093 432.515 43.9816C432.515 38.2633 431.73 34.2102 430.159 31.8223C428.651 29.4345 425.886 28.2405 421.864 28.2405C417.843 28.2405 415.046 29.4345 413.475 31.8223C411.967 34.2102 411.213 38.2633 411.213 43.9816C411.213 49.6371 411.936 53.753 413.381 56.3294Z" fill="black"/>
<path d="M361.926 30.7855V67.7345H351.652V1H361.926V23.0563C366.513 20.7313 370.817 19.5688 374.839 19.5688C377.981 19.5688 380.589 20.0087 382.662 20.8884C384.736 21.7053 386.401 23.0563 387.658 24.9415C388.915 26.7638 389.795 29.1203 390.297 32.0108C390.863 34.9014 391.146 38.3889 391.146 42.4734V67.7345H380.872V42.7562C380.872 40.1798 380.746 38.0119 380.495 36.2524C380.306 34.4929 379.898 33.0477 379.269 31.9166C378.641 30.7855 377.761 29.9686 376.63 29.4659C375.562 28.9632 374.179 28.7118 372.483 28.7118C369.403 28.7118 366.387 29.2145 363.434 30.2199L361.926 30.7855Z" fill="black"/>
<path d="M320.644 11.2741C312.663 11.2741 308.673 14.0704 308.673 19.663C308.673 22.4907 309.616 24.533 311.501 25.7898C313.386 27.0465 317.565 28.5547 324.037 30.3141C327.242 31.1939 329.944 32.1365 332.143 33.1419C334.405 34.1473 336.228 35.3412 337.61 36.7237C338.993 38.1061 339.998 39.7713 340.626 41.7193C341.255 43.6045 341.569 45.8667 341.569 48.5059C341.569 55.3553 339.621 60.4452 335.725 63.7757C331.892 67.1061 326.645 68.7713 319.984 68.7713C317.282 68.7713 314.454 68.6142 311.501 68.3001C308.61 67.9859 305.531 67.5146 302.264 66.8862L298.87 66.2264L299.907 57.8374C308.39 58.9685 314.863 59.5341 319.324 59.5341C327.116 59.5341 331.012 56.078 331.012 49.1657C331.012 46.4637 330.132 44.4528 328.373 43.1332C326.613 41.8764 322.655 40.4626 316.496 38.8916C313.417 38.1375 310.715 37.2578 308.39 36.2524C306.128 35.247 304.243 34.0216 302.735 32.5763C301.227 31.131 300.096 29.3716 299.342 27.2979C298.587 25.1614 298.21 22.6478 298.21 19.7573C298.21 13.8504 300.096 9.42032 303.866 6.46691C307.636 3.5135 312.915 2.03679 319.701 2.03679C324.54 2.03679 330.258 2.60234 336.856 3.73343L340.155 4.29898L339.307 12.7822C334.908 12.2795 331.138 11.9024 327.996 11.6511C324.917 11.3997 322.466 11.2741 320.644 11.2741Z" fill="black"/>
<path d="M255.978 67.7346H245.704V20.6056H255.883V26.2611C261.162 22.8678 266.503 20.6371 271.907 19.5688V29.8429C266.692 30.8483 262.073 32.2308 258.051 33.9903L255.978 34.8386V67.7346Z" fill="black"/>
<path d="M231.394 59.2514L234.033 58.9686L234.222 66.6035C230.64 67.2947 227.278 67.8288 224.136 68.2058C220.994 68.5829 218.01 68.7714 215.182 68.7714C208.207 68.7714 203.18 66.8548 200.101 63.0217C197.084 59.1885 195.576 53.0618 195.576 44.6414C195.576 27.9263 202.394 19.5688 216.03 19.5688C229.226 19.5688 235.824 26.7638 235.824 41.1538L235.164 48.506H205.945C206.007 52.4019 206.856 55.2611 208.49 57.0834C210.123 58.9057 213.171 59.8169 217.633 59.8169C222.094 59.8169 226.681 59.6284 231.394 59.2514ZM205.85 40.5883H225.739C225.739 35.8754 225.016 32.6078 223.571 30.7855C222.125 28.9632 219.612 28.052 216.03 28.052C212.448 28.052 209.872 29.026 208.301 30.974C206.73 32.8592 205.913 36.0639 205.85 40.5883Z" fill="black"/>
<path d="M131.803 67.7345L121.812 20.6056H131.898L139.344 58.9685H141.229L150.184 21.5482H160.74L169.695 58.9685H171.58L178.932 20.6056H189.112L179.121 67.7345H162.814L155.462 35.4041L148.11 67.7345H131.803Z" fill="black"/>
<path d="M62.5046 67.7345H52.2305V1H62.5046V67.7345Z" fill="black"/>
<path d="M13.4626 67.7346H3V3.16794H43.0596V12.311H13.4626V34.0845H38.0639V43.2275H13.4626V67.7346Z" fill="black"/>
<path d="M105.768 51.1519C99.5976 48.4166 95.6885 52.9089 94.5052 55.497C94.4408 58.1539 95.6835 63.7941 101.17 65.1001C106.656 66.4061 114.712 61.1428 118.054 58.3479C116.066 57.8679 113.48 54.571 105.768 51.1519Z" fill="url(#paint0_linear_20_145)"/>
<path d="M104.611 57.0535C105.998 56.4047 109.028 55.0899 110.05 55.0205" stroke="white"/>
<path d="M94.7058 55.5917C102.021 56.289 109.498 58.6752 117.27 58.4371" stroke="white"/>
<path d="M98.1718 56.0798C99.6695 54.869 103.037 52.393 104.526 52.1762" stroke="white"/>
<path d="M96.7855 55.8845C96.8031 56.3535 96.7258 59.5418 100.973 62.4727" stroke="white"/>
<path d="M102.44 56.9478C102.7 57.762 104.734 60.3368 107.341 61.5705" stroke="white"/>
<path d="M83.647 57.4188C87.7937 51.8442 93.7756 54.1057 96.2483 55.9333C97.7387 58.3742 99.6461 64.2331 95.3523 68.1418C91.0585 72.0504 80.8831 71.1075 76.3321 70.1474C77.8844 68.7248 78.4637 64.3871 83.647 57.4188Z" fill="url(#paint1_linear_20_145)"/>
<path d="M87.8819 62.343C86.2683 62.4204 82.7993 62.6844 81.8311 63.1215" stroke="white"/>
<path d="M96.1167 56.12C89.8288 60.36 84.3036 66.2513 77.095 69.8454" stroke="white"/>
<path d="M93.2226 58.2758C91.2058 57.8842 86.8038 57.2334 85.3306 57.7626" stroke="white"/>
<path d="M94.3802 57.4135C94.617 57.8586 96.4055 60.7877 94.1162 65.6002" stroke="white"/>
<path d="M89.8026 61.1789C90.0042 62.0644 89.539 65.459 87.8287 67.8871" stroke="white"/>
<path d="M77.2643 36.8694C77.6724 39.8494 79.4188 46.1421 83.1404 47.4734C87.7923 49.1374 90.0792 47.7782 92.5489 48.9407" stroke="url(#paint2_linear_20_145)" stroke-width="2"/>
<path d="M95.7925 30.3311C98.5365 32.02 103.663 36.2559 102.215 39.6882C100.406 43.9786 96.5085 44.4965 94.8835 44.1584" stroke="url(#paint3_linear_20_145)" stroke-width="2"/>
<path d="M95.7925 30.3311C98.5365 32.02 103.663 36.2559 102.215 39.6882C100.406 43.9786 96.5085 44.4965 94.8835 44.1584" stroke="url(#paint4_linear_20_145)" stroke-width="2"/>
<path d="M97.472 26.9945C94.794 27.7408 90.6663 26.2059 88.9371 25.3451C84.9798 23.6864 82.7026 26.6001 82.0587 28.2643C78.6595 30.4046 72.4517 36.8837 74.8141 45.6775C77.1765 54.4714 89.003 59.1344 94.621 60.3667C99.8268 61.2474 104.022 59.1483 105.468 57.9886C110.351 58.7514 113.051 55.4375 113.196 53.9804C113.311 52.8147 114.466 51.2391 115.03 50.5969C116.423 47.6468 114.041 43.5254 112.677 41.8335C113.616 39.3869 112.754 33.8288 110.752 30.6121C108.75 27.3954 100.819 26.0616 97.472 26.9945Z" fill="url(#paint5_linear_20_145)"/>
<path d="M98.8953 62.7274C109.874 60.3925 113.412 52.3906 112.204 49.3762C111.965 48.2295 110.762 44.1275 107.864 36.8928C104.242 27.8495 73.9121 27.3285 74.6281 41.494C75.3441 55.6595 85.1715 65.646 98.8953 62.7274Z" fill="#E57881"/>
<path fill-rule="evenodd" clip-rule="evenodd" d="M112.752 41.6185C111.737 43.7714 109.908 46.2987 106.765 48.45C105.861 49.0846 103.564 51.0177 101.608 53.6733C98.9531 55.3937 91.3967 57.0223 82.41 49.7735C79.9121 47.7963 75.0826 42.32 75.4879 36.0693C74.3294 38.7769 73.8336 42.0279 74.8141 45.6776C77.1765 54.4714 89.003 59.1345 94.6209 60.3667C99.8267 61.2475 104.022 59.1483 105.468 57.9886C110.351 58.7514 113.051 55.4375 113.196 53.9804C113.311 52.8148 114.466 51.2391 115.03 50.597C116.423 47.6468 114.041 43.5254 112.677 41.8335C112.703 41.7643 112.728 41.6926 112.752 41.6185Z" fill="#ECABA3"/>
<path d="M102.346 47.5465C101.973 46.3297 101.113 41.8794 100.73 39.8064C100.137 40.9011 96.9835 42.1908 96.5736 42.232C96.1637 42.2733 88.9801 43.373 88.5775 43.1627L102.166 50.2616C102.382 49.8635 102.72 48.7632 102.346 47.5465Z" fill="url(#paint6_linear_20_145)"/>
<ellipse cx="5.4511" cy="4.98067" rx="5.4511" ry="4.98067" transform="matrix(0.886339 0.463038 -0.476605 0.879118 92.3088 28.8943)" fill="url(#paint7_linear_20_145)"/>
<path d="M96.3143 37.7768C96.4043 38.5281 95.8202 39.3076 94.8821 39.4222C93.9441 39.5368 93.1926 38.9204 93.1026 38.1691C93.0125 37.4178 93.5967 36.6383 94.5347 36.5237C95.4728 36.4092 96.2242 37.0255 96.3143 37.7768Z" fill="#EA8994" stroke="url(#paint8_linear_20_145)" stroke-width="2"/>
<path d="M90.5202 36.005C89.6808 33.932 91.1442 32.0744 91.9809 31.4048C91.2798 31.5067 89.679 32.2199 88.8847 34.2567C88.0904 36.2936 89.1135 40.5058 89.7102 41.0729C90.3069 41.64 92.4496 41.7378 95.1714 41.2442C99.0743 40.5364 100.145 37.0743 100.145 37.0743C100.745 35.728 99.8361 33.593 99.2861 33.178C98.8461 32.846 98.7264 33.0984 98.7216 33.2662C99.5736 33.839 99.3683 35.6472 99.138 36.5484C98.9077 37.4497 97.1313 38.8203 95.7938 39.1431C94.4563 39.466 91.5695 38.5963 90.5202 36.005Z" fill="url(#paint9_linear_20_145)"/>
<path d="M82.7803 33.366C82.1419 32.8282 81.0402 33.4785 80.6086 34.2746C80.177 35.0707 78.9901 37.26 80.1433 41.5657C81.464 46.4972 84.678 47.8934 86.2431 47.9448C87.8598 47.9807 91.6381 48.2859 93.8181 49.2205C95.998 50.155 99.604 49.3487 101.135 48.8287C101.325 48.7154 101.478 48.2421 100.567 47.2551C99.6553 46.2681 94.1138 44.863 91.457 44.2838C97.446 43.6186 98.3292 42.7909 99.8755 41.3415L99.9209 41.299C101.181 40.1184 101.119 36.9447 100.638 35.9269C100.81 37.0385 99.9827 38.4906 98.9434 39.7667C96.5439 42.7129 91.2742 41.762 89.4262 42.0735C87.5781 42.3851 85.3742 42.6384 83.0341 40.522C81.162 38.8289 81.8664 36.7195 82.4526 35.8765C82.8279 35.2638 83.4188 33.9039 82.7803 33.366Z" fill="#F2B9AE"/>
<path d="M109.686 34.961C109.512 30.5281 101.473 27.4776 95.3601 30.4138C106.994 34.4482 105.345 45.5903 102.594 47.0904C100.393 48.2904 97.6443 52.805 96.5449 54.9124C97.3227 54.51 98.9791 53.7578 99.3818 53.9681C105.156 52.1322 109.922 40.9584 109.686 34.961Z" fill="#F2B9AE"/>
<path d="M80.4541 34.3217C79.4387 35.8769 77.9384 39.7243 80.0604 42.6718C82.7129 46.3561 81.6596 45.6781 84.6649 47.7589" stroke="url(#paint10_linear_20_145)"/>
<path d="M79.5724 38.3305C79.2084 42.099 83.7839 48.1925 90.2372 49.393C96.6905 50.5934 97.0142 49.9963 100.006 49.0051" stroke="url(#paint11_linear_20_145)"/>
<path d="M92.3967 38.2622C95.0138 39.6294 96.5059 39.2596 97.8112 38.2814C99.1165 37.3033 101.447 34.4343 97.7443 31.7339" stroke="url(#paint12_linear_20_145)"/>
<path d="M92.3967 38.2622C95.0138 39.6294 96.5059 39.2596 97.8112 38.2814C99.1165 37.3033 101.447 34.4343 97.7443 31.7339" stroke="url(#paint13_linear_20_145)"/>
<path d="M92.3967 38.2622C95.0138 39.6294 96.5059 39.2596 97.8112 38.2814C99.1165 37.3033 101.447 34.4343 97.7443 31.7339" stroke="url(#paint14_linear_20_145)"/>
<path d="M90.3479 34.8935C91.5478 39.3513 94.7996 40.2625 97.1926 38.4692C99.5856 36.6759 99.5809 33.5874 95.8783 30.8869" stroke="url(#paint15_linear_20_145)"/>
<path d="M96.0473 30.3368C96.7197 30.0495 104.691 28.212 108.109 31.9132C111.527 35.6145 109.43 42.8191 105.704 48.0237" stroke="url(#paint16_linear_20_145)"/>
<path d="M100.765 29.7363C111.565 30.7812 108.351 41.7192 106.568 46.4315C105.075 50.3764 101.321 49.4372 96.258 54.9647" stroke="white"/>
<path d="M112.878 41.9387C115.293 45.5841 117.862 53.7112 108.816 57.0557C97.5077 61.2364 93.2761 60.9412 89.3972 59.0425" stroke="url(#paint17_linear_20_145)"/>
<path d="M75.0531 37.3744C74.8011 39.0306 71.1936 45.4464 78.1921 52.5503C83.7909 58.2335 93.2055 60.4361 97.213 60.8271" stroke="url(#paint18_linear_20_145)"/>
<path d="M101.014 38.8055C101.432 40.2582 100.411 43.4449 92.9814 44.5693M100.785 36.1316C102.19 38.7812 100.132 46.3895 86.1867 42.8074" stroke="url(#paint19_linear_20_145)"/>
</g>
<defs>
<linearGradient id="paint0_linear_20_145" x1="108.481" y1="52.4179" x2="102.16" y2="65.7759" gradientUnits="userSpaceOnUse">
<stop stop-color="#ACA97D"/>
<stop offset="1" stop-color="#7D7A5F"/>
</linearGradient>
<linearGradient id="paint1_linear_20_145" x1="96.6166" y1="56.1916" x2="77.0873" y2="70.3214" gradientUnits="userSpaceOnUse">
<stop stop-color="#828B3A"/>
<stop offset="1" stop-color="#B5C37F"/>
</linearGradient>
<linearGradient id="paint2_linear_20_145" x1="85.7698" y1="41.3128" x2="82.6579" y2="47.2696" gradientUnits="userSpaceOnUse">
<stop stop-color="white" stop-opacity="0"/>
<stop offset="1" stop-color="white"/>
</linearGradient>
<linearGradient id="paint3_linear_20_145" x1="100.291" y1="32.6813" x2="94.4214" y2="43.917" gradientUnits="userSpaceOnUse">
<stop stop-color="white" stop-opacity="0"/>
<stop offset="1" stop-color="white"/>
</linearGradient>
<linearGradient id="paint4_linear_20_145" x1="100.291" y1="32.6813" x2="94.4214" y2="43.917" gradientUnits="userSpaceOnUse">
<stop stop-color="white" stop-opacity="0"/>
<stop offset="1" stop-color="white"/>
</linearGradient>
<linearGradient id="paint5_linear_20_145" x1="86.3515" y1="28.2084" x2="103.043" y2="59.9505" gradientUnits="userSpaceOnUse">
<stop stop-color="#ED929A"/>
<stop offset="1" stop-color="#DA616C"/>
</linearGradient>
<linearGradient id="paint6_linear_20_145" x1="101.812" y1="43.0531" x2="94.2199" y2="47.4379" gradientUnits="userSpaceOnUse">
<stop stop-color="#D9D9D9" stop-opacity="0.37"/>
<stop offset="0.154167" stop-color="#DEA5AB" stop-opacity="0.713219"/>
<stop offset="1" stop-color="#E27A84"/>
</linearGradient>
<linearGradient id="paint7_linear_20_145" x1="5.4511" y1="0" x2="5.4511" y2="9.96135" gradientUnits="userSpaceOnUse">
<stop stop-color="#F48C94"/>
<stop offset="0.945833" stop-color="#B56C75"/>
</linearGradient>
<linearGradient id="paint8_linear_20_145" x1="94.4166" y1="35.5381" x2="94.2997" y2="38.0339" gradientUnits="userSpaceOnUse">
<stop stop-color="#F5B7BE"/>
<stop offset="1" stop-color="#EE9CA5" stop-opacity="0"/>
</linearGradient>
<linearGradient id="paint9_linear_20_145" x1="96.0216" y1="33.0049" x2="88.7368" y2="46.9493" gradientUnits="userSpaceOnUse">
<stop stop-color="#F1B7AD"/>
<stop offset="1" stop-color="#F2B9AE"/>
</linearGradient>
<linearGradient id="paint10_linear_20_145" x1="79.9026" y1="34.0336" x2="89.3582" y2="39.6492" gradientUnits="userSpaceOnUse">
<stop offset="0.0104167" stop-color="white" stop-opacity="0"/>
<stop offset="0.239583" stop-color="white"/>
<stop offset="0.817708" stop-color="white"/>
<stop offset="1" stop-color="white" stop-opacity="0"/>
</linearGradient>
<linearGradient id="paint11_linear_20_145" x1="78.3645" y1="37.6994" x2="97.8819" y2="52.7927" gradientUnits="userSpaceOnUse">
<stop offset="0.0104167" stop-color="white" stop-opacity="0"/>
<stop offset="0.239583" stop-color="white"/>
<stop offset="0.817708" stop-color="white"/>
<stop offset="1" stop-color="white" stop-opacity="0"/>
</linearGradient>
<linearGradient id="paint12_linear_20_145" x1="95.5298" y1="30.577" x2="90.3493" y2="40.0059" gradientUnits="userSpaceOnUse">
<stop offset="0.0104167" stop-color="white" stop-opacity="0"/>
<stop offset="0.239583" stop-color="white"/>
<stop offset="0.817708" stop-color="white"/>
<stop offset="1" stop-color="white" stop-opacity="0"/>
</linearGradient>
<linearGradient id="paint13_linear_20_145" x1="95.5298" y1="30.577" x2="90.3493" y2="40.0059" gradientUnits="userSpaceOnUse">
<stop offset="0.0104167" stop-color="white" stop-opacity="0"/>
<stop offset="0.239583" stop-color="white"/>
<stop offset="0.817708" stop-color="white"/>
<stop offset="1" stop-color="white" stop-opacity="0"/>
</linearGradient>
<linearGradient id="paint14_linear_20_145" x1="95.5298" y1="30.577" x2="90.3493" y2="40.0059" gradientUnits="userSpaceOnUse">
<stop offset="0.0104167" stop-color="white" stop-opacity="0"/>
<stop offset="0.239583" stop-color="white"/>
<stop offset="0.817708" stop-color="white"/>
<stop offset="1" stop-color="white" stop-opacity="0"/>
</linearGradient>
<linearGradient id="paint15_linear_20_145" x1="90.3624" y1="34.3903" x2="93.7883" y2="43.2478" gradientUnits="userSpaceOnUse">
<stop offset="0.0104167" stop-color="white" stop-opacity="0"/>
<stop offset="0.279167" stop-color="white"/>
<stop offset="0.817708" stop-color="white"/>
<stop offset="1" stop-color="white" stop-opacity="0"/>
</linearGradient>
<linearGradient id="paint16_linear_20_145" x1="96.702" y1="28.891" x2="98.1111" y2="43.5186" gradientUnits="userSpaceOnUse">
<stop offset="0.0187499" stop-color="white" stop-opacity="0.07"/>
<stop offset="0.560417" stop-color="white"/>
<stop offset="1" stop-color="white" stop-opacity="0"/>
</linearGradient>
<linearGradient id="paint17_linear_20_145" x1="99.378" y1="40.3698" x2="105.304" y2="60.2093" gradientUnits="userSpaceOnUse">
<stop offset="0.0187499" stop-color="white" stop-opacity="0.07"/>
<stop offset="0.560417" stop-color="white"/>
<stop offset="1" stop-color="white" stop-opacity="0"/>
</linearGradient>
<linearGradient id="paint18_linear_20_145" x1="73.7119" y1="39.4214" x2="71.1106" y2="53.1743" gradientUnits="userSpaceOnUse">
<stop offset="0.0187499" stop-color="white" stop-opacity="0.07"/>
<stop offset="0.560417" stop-color="white"/>
<stop offset="1" stop-color="white" stop-opacity="0"/>
</linearGradient>
<linearGradient id="paint19_linear_20_145" x1="95.8325" y1="35.8809" x2="98.7816" y2="43.3529" gradientUnits="userSpaceOnUse">
<stop offset="0.0187499" stop-color="white" stop-opacity="0.07"/>
<stop offset="0.560417" stop-color="white"/>
<stop offset="1" stop-color="white" stop-opacity="0"/>
</linearGradient>
</defs>
</svg>
